<svg width="83" height="83" viewBox="0 0 83 83" fill="none" xmlns="http://www.w3.org/2000/svg">
<rect width="83" height="83" rx="41.5" fill="white" fill-opacity="0.2"/>
<g clip-path="url(#clip0_113_245)">
<path d="M30.6286 22.8205C31.7117 22.8205 32.5896 23.6985 32.5896 24.7815V59.2185C32.5896 60.3015 31.7117 61.1795 30.6286 61.1795H30.243C29.1599 61.1795 28.2819 60.3015 28.2819 59.2185V24.7815C28.2819 23.6985 29.1599 22.8205 30.243 22.8205H30.6286ZM30.6286 22H30.243C28.7086 22 27.4614 23.2472 27.4614 24.7815V59.2185C27.4614 60.7528 28.7086 62 30.243 62H30.6286C32.163 62 33.4101 60.7528 33.4101 59.2185V24.7815C33.4101 23.2472 32.163 22 30.6286 22Z" fill="white"/>
<path d="M34.5672 50.3076H26.3046C25.6407 50.3076 25.1025 50.8458 25.1025 51.5097V54.4389C25.1025 55.1028 25.6407 55.641 26.3046 55.641H34.5672C35.231 55.641 35.7692 55.1028 35.7692 54.4389V51.5097C35.7692 50.8458 35.231 50.3076 34.5672 50.3076Z" fill="white"/>
<path d="M41.7058 22.8205C42.7888 22.8205 43.6668 23.6985 43.6668 24.7815V59.2185C43.6668 60.3015 42.7888 61.1795 41.7058 61.1795H41.3201C40.237 61.1795 39.3591 60.3015 39.3591 59.2185V24.7815C39.3591 23.6985 40.237 22.8205 41.3201 22.8205H41.7058ZM41.7058 22H41.3201C39.7858 22 38.5386 23.2472 38.5386 24.7815V59.2185C38.5386 60.7528 39.7858 62 41.3201 62H41.7058C43.2401 62 44.4873 60.7528 44.4873 59.2185V24.7815C44.4873 23.2472 43.2401 22 41.7058 22Z" fill="white"/>
<path d="M45.6443 38H37.3817C36.7179 38 36.1797 38.5382 36.1797 39.2021V42.1313C36.1797 42.7952 36.7179 43.3333 37.3817 43.3333H45.6443C46.3082 43.3333 46.8464 42.7952 46.8464 42.1313V39.2021C46.8464 38.5382 46.3082 38 45.6443 38Z" fill="white"/>
<path d="M52.7824 22.8205C53.8655 22.8205 54.7434 23.6985 54.7434 24.7815V59.2185C54.7434 60.3015 53.8655 61.1795 52.7824 61.1795H52.3968C51.3137 61.1795 50.4357 60.3015 50.4357 59.2185V24.7815C50.4357 23.6985 51.3137 22.8205 52.3968 22.8205H52.7824ZM52.7824 22H52.3968C50.8624 22 49.6152 23.2472 49.6152 24.7815V59.2185C49.6152 60.7528 50.8624 62 52.3968 62H52.7824C54.3168 62 55.564 60.7528 55.564 59.2185V24.7815C55.564 23.2472 54.3168 22 52.7824 22Z" fill="white"/>
<path d="M56.721 43.7432H48.4584C47.7945 43.7432 47.2563 44.2813 47.2563 44.9452V47.8744C47.2563 48.5383 47.7945 49.0765 48.4584 49.0765H56.721C57.3848 49.0765 57.923 48.5383 57.923 47.8744V44.9452C57.923 44.2813 57.3848 43.7432 56.721 43.7432Z" fill="white"/>
</g>
<defs>
<clipPath id="clip0_113_245">
<rect width="32.8205" height="40" fill="white" transform="translate(25.1025 22)"/>
</clipPath>
</defs>
</svg>
