<svg width="83" height="83" viewBox="0 0 83 83" fill="none" xmlns="http://www.w3.org/2000/svg">
<rect width="83" height="83" rx="41.5" fill="white" fill-opacity="0.2"/>
<path d="M27.2202 28.2666C27.0876 28.2666 26.9815 28.3727 26.9815 28.5053V35.8052C26.4891 35.0854 25.6632 34.6157 24.7275 34.6157C23.2198 34.6157 22 35.8355 22 37.3432C22 38.8509 23.2198 40.0708 24.7275 40.0708C26.2352 40.0708 27.4551 38.8509 27.4551 37.3432V28.5053C27.4551 28.3727 27.349 28.2666 27.2164 28.2666H27.2202Z" fill="white"/>
<path d="M62.0002 30.6566C62.0002 29.9368 61.5645 29.289 60.894 29.0201L58.1248 27.9025V27.1449C58.1248 26.9593 57.9733 26.8115 57.7915 26.8115C57.6096 26.8115 57.4581 26.9631 57.4581 27.1449V37.4489C56.7648 36.4336 55.5981 35.7669 54.276 35.7669C52.1508 35.7669 50.4233 37.4906 50.4233 39.6196C50.4233 41.7485 52.147 43.4722 54.276 43.4722C56.405 43.4722 58.1286 41.7485 58.1286 39.6196V30.9407L62.004 32.5015V30.6528L62.0002 30.6566Z" fill="white"/>
<path d="M45.5777 37.9189C45.3618 37.9189 45.1875 38.0932 45.1875 38.3091V38.8925H32.9137V38.3091C32.9137 38.0932 32.7394 37.9189 32.5235 37.9189C32.3075 37.9189 32.1333 38.0932 32.1333 38.3091V50.2989C31.3264 49.117 29.9702 48.3442 28.4322 48.3442C25.9584 48.3442 23.9507 50.3519 23.9507 52.8257C23.9507 55.2994 25.9584 57.3071 28.4322 57.3071C30.9059 57.3071 32.9137 55.2994 32.9137 52.8257V42.5974H45.1913V50.3027C44.3844 49.1208 43.0282 48.348 41.4902 48.348C39.0165 48.348 37.0087 50.3557 37.0087 52.8294C37.0087 55.3032 39.0165 57.3109 41.4902 57.3109C43.9639 57.3109 45.9717 55.3032 45.9717 52.8294V38.3091C45.9717 38.0932 45.7974 37.9189 45.5815 37.9189H45.5777Z" fill="white"/>
</svg>
